<?xml version="1.0" encoding="UTF-8"?>
<svg width="31px" height="31px" viewBox="0 0 31 31" version="1.1" xmlns="http://www.w3.org/2000/svg" xmlns:xlink="http://www.w3.org/1999/xlink">
    <!-- Generator: Sketch 49.1 (51147) - http://www.bohemiancoding.com/sketch -->
    <title>icons8-add</title>
    <desc>Created with Sketch.</desc>
    <defs>
        <linearGradient x1="50%" y1="-4.16673077%" x2="50%" y2="104.511731%" id="linearGradient-1">
            <stop stop-color="#1A6DFF" offset="0%"></stop>
            <stop stop-color="#C822FF" offset="100%"></stop>
        </linearGradient>
        <linearGradient x1="50%" y1="-14.0152273%" x2="50%" y2="114.422955%" id="linearGradient-2">
            <stop stop-color="#1A6DFF" offset="0%"></stop>
            <stop stop-color="#C822FF" offset="100%"></stop>
        </linearGradient>
        <linearGradient x1="50%" y1="-0.8335%" x2="50%" y2="102.906%" id="linearGradient-3">
            <stop stop-color="#6DC7FF" offset="0%"></stop>
            <stop stop-color="#E6ABFF" offset="100%"></stop>
        </linearGradient>
    </defs>
    <g id="Mockup" stroke="none" stroke-width="1" fill="none" fill-rule="evenodd">
        <g id="Desktop-HD" transform="translate(-1051.000000, -23.000000)" fill-rule="nonzero">
            <g id="Group" transform="translate(1051.000000, 23.000000)">
                <g id="icons8-add">
                    <path d="M15.5,31 C6.95353846,31 0,24.0470577 0,15.5 C0,6.95294231 6.95353846,0 15.5,0 C24.0464615,0 31,6.95294231 31,15.5 C31,24.0470577 24.0464615,31 15.5,31 Z M15.5,1.19230769 C7.61109615,1.19230769 1.19230769,7.61109615 1.19230769,15.5 C1.19230769,23.3889038 7.61109615,29.8076923 15.5,29.8076923 C23.3889038,29.8076923 29.8076923,23.3889038 29.8076923,15.5 C29.8076923,7.61109615 23.3889038,1.19230769 15.5,1.19230769 Z" id="Shape" fill="url(#linearGradient-1)"></path>
                    <path d="M15.5,28.6153846 C8.26805769,28.6153846 2.38461538,22.7319423 2.38461538,15.5 C2.38461538,8.26805769 8.26805769,2.38461538 15.5,2.38461538 C22.7319423,2.38461538 28.6153846,8.26805769 28.6153846,15.5 C28.6153846,22.7319423 22.7319423,28.6153846 15.5,28.6153846 Z M15.5,3.57692308 C8.92561538,3.57692308 3.57692308,8.92561538 3.57692308,15.5 C3.57692308,22.0743846 8.92561538,27.4230769 15.5,27.4230769 C22.0743846,27.4230769 27.4230769,22.0743846 27.4230769,15.5 C27.4230769,8.92561538 22.0743846,3.57692308 15.5,3.57692308 Z" id="Shape" fill="url(#linearGradient-2)"></path>
                    <path d="M20.8653846,14.3076923 L16.6923077,14.3076923 L16.6923077,10.1346154 C16.6923077,9.80553846 16.4252308,9.53846154 16.0961538,9.53846154 L14.9038462,9.53846154 C14.5747692,9.53846154 14.3076923,9.80553846 14.3076923,10.1346154 L14.3076923,14.3076923 L10.1346154,14.3076923 C9.80553846,14.3076923 9.53846154,14.5747692 9.53846154,14.9038462 L9.53846154,16.0961538 C9.53846154,16.4252308 9.80553846,16.6923077 10.1346154,16.6923077 L14.3076923,16.6923077 L14.3076923,20.8653846 C14.3076923,21.1944615 14.5747692,21.4615385 14.9038462,21.4615385 L16.0961538,21.4615385 C16.4252308,21.4615385 16.6923077,21.1944615 16.6923077,20.8653846 L16.6923077,16.6923077 L20.8653846,16.6923077 C21.1944615,16.6923077 21.4615385,16.4252308 21.4615385,16.0961538 L21.4615385,14.9038462 C21.4615385,14.5747692 21.1944615,14.3076923 20.8653846,14.3076923 Z" id="Shape" fill="url(#linearGradient-3)"></path>
                </g>
            </g>
        </g>
    </g>
</svg>